<svg width="946" height="946" viewBox="0 0 946 946" fill="none" xmlns="http://www.w3.org/2000/svg">
<path d="M473 473C582.143 391.143 609.428 227.429 473 91C336.571 227.429 363.857 391.143 473 473Z" fill="#BFE17D"/>
<path d="M473 473C554.857 582.143 718.571 609.428 855 473C718.571 336.571 554.857 363.857 473 473Z" fill="#BFE17D"/>
<path d="M473 473C363.857 554.857 336.572 718.571 473 855C609.429 718.571 582.143 554.857 473 473Z" fill="#BFE17D"/>
<path d="M473 473C391.143 363.857 227.429 336.572 91 473C227.429 609.429 391.143 582.143 473 473Z" fill="#BFE17D"/>
<g opacity="0.85">
<path d="M473.002 472.999C608.059 492.293 743.117 395.823 743.117 202.884C550.177 202.884 453.708 337.941 473.002 472.999Z" fill="#88C35B"/>
<path d="M473 472.999C453.706 608.056 550.176 743.114 743.115 743.114C743.115 550.174 608.058 453.705 473 472.999Z" fill="#88C35B"/>
<path d="M473.001 473C337.944 453.706 202.886 550.176 202.886 743.115C395.826 743.115 492.295 608.058 473.001 473Z" fill="#88C35B"/>
<path d="M473 472.999C492.294 337.942 395.824 202.884 202.885 202.884C202.885 395.824 337.942 492.293 473 472.999Z" fill="#88C35B"/>
</g>
<path d="M473 472.999C527.572 418.428 541.215 336.57 473 281.999C404.786 336.57 418.429 418.428 473 472.999Z" fill="#286267"/>
<path d="M473 473C550.176 473 617.705 424.765 608.058 337.943C521.235 328.296 473 395.824 473 473Z" fill="#286267"/>
<path d="M472.999 473C527.57 527.572 609.428 541.215 663.999 473C609.428 404.786 527.57 418.429 472.999 473Z" fill="#286267"/>
<path d="M472.999 472.999C472.999 550.175 521.234 617.704 608.056 608.057C617.703 521.234 550.175 472.999 472.999 472.999Z" fill="#286267"/>
<path d="M473 472.999C418.428 527.57 404.785 609.428 473 663.999C541.214 609.428 527.571 527.57 473 472.999Z" fill="#286267"/>
<path d="M472.999 472.999C395.823 472.999 328.294 521.234 337.941 608.056C424.764 617.703 472.999 550.175 472.999 472.999Z" fill="#286267"/>
<path d="M472.999 473C418.428 418.428 336.57 404.785 281.999 473C336.57 541.214 418.428 527.571 472.999 473Z" fill="#286267"/>
<path d="M473 472.999C473 395.823 424.765 328.294 337.943 337.941C328.296 424.764 395.824 472.999 473 472.999Z" fill="#286267"/>
</svg>
